<svg xmlns="http://www.w3.org/2000/svg" viewBox="0 0 64 64">
  <defs>
    <linearGradient id="g" x1="10" x2="54" y1="8" y2="56" gradientUnits="userSpaceOnUse">
      <stop stop-color="#5b2cff"/>
      <stop offset="1" stop-color="#ec4899"/>
    </linearGradient>
  </defs>
  <rect width="64" height="64" rx="14" fill="url(#g)"/>
  <path fill="#fff" d="M22 22h20a5 5 0 0 1 5 5v16a5 5 0 0 1-5 5H22a5 5 0 0 1-5-5V27a5 5 0 0 1 5-5Zm4-5a6 6 0 0 1 6-6h0a6 6 0 0 1 6 6v5h-4v-5a2 2 0 0 0-4 0v5h-4v-5Zm-5 15v5h9v-3h4v3h9v-5l-10 4h-2l-10-4Z"/>
  <path fill="#ffd166" d="m13 12 7 5-5 2 2 7-7-11 5-1-2-2Z"/>
</svg>
